<svg width="144" height="1212" viewBox="0 0 144 1212" fill="none" xmlns="http://www.w3.org/2000/svg">
<g clip-path="url(#clip0_3629_655)">
<path fill-rule="evenodd" clip-rule="evenodd" d="M98.1869 39.7298C105.346 26.567 112.139 14.0791 115.503 3.0783L121.66 3.07829C118.298 16.3065 110.348 30.1337 102.188 44.3253C90.8618 64.0228 79.1324 84.4225 78.7069 104.897C77.5028 129.409 82.6806 136.282 88.9079 144.548C92.7039 149.587 96.8899 155.143 100.258 165.528C103.376 175.143 109.151 198.504 109.487 212.037C111.11 240.15 107.34 243.275 103.373 244.776C97.8277 246.875 90.7014 236.743 84.9082 228.505C77.25 217.616 71.9212 210.039 75.6523 238.408C79.2452 265.727 83.1376 285.809 86.9295 305.372L86.9297 305.374L86.9319 305.384C87.856 310.153 88.7743 314.89 89.6808 319.695C91.1459 327.459 92.8056 335.18 94.5573 343.329L94.5577 343.33C98.2797 360.646 102.417 379.893 105.985 405.598C107.948 419.738 110.064 430.444 111.954 440.012C117.269 466.908 120.805 484.805 114.172 544.667C110.437 578.374 91.5449 608.502 74.717 635.339L74.7168 635.34C61.7703 655.986 50.0453 674.685 47.3834 691.567C44.4396 710.237 55.3927 716.172 66.7121 722.305C78.8429 728.878 91.3944 735.679 87.7128 758.627C83.008 787.952 71.4169 805.125 60.4897 821.315C49.3929 837.756 38.9807 853.183 37.1601 879.292C35.1277 908.439 50.637 940.524 63.5056 967.146C75.3802 991.712 85.0062 1011.63 76.5261 1020.29C68.165 1028.83 53.2624 1031.75 40.3717 1034.29C26.0192 1037.11 14.1608 1039.43 16.6016 1048.48C17.4957 1051.79 27.0645 1048.97 39.0585 1045.43C58.9045 1039.59 85.3906 1031.78 90.2058 1046.56C95.6159 1063.17 89.0258 1094.43 71.3685 1110.43C62.8872 1118.12 50.6911 1110.82 39.4158 1104.08C29.5754 1098.19 20.4363 1092.72 15.0799 1098C6.80076 1106.16 16.2954 1171.93 22.254 1208.08L14.842 1208.08C7.90335 1173.18 -1.72542 1099.85 8.29031 1091.11C19.9165 1080.97 32.3356 1088.97 43.6905 1096.28C54.167 1103.03 63.7375 1109.2 70.9432 1099.99C77.9828 1090.99 85.658 1072.28 82.884 1053.78C80.9867 1041.12 64.0676 1046.28 46.8532 1051.53C29.5619 1056.8 11.9727 1062.17 9.01063 1049.66C5.80201 1036.11 23.8822 1032.01 41.6866 1027.97C57.8006 1024.31 73.6888 1020.7 73.3634 1010.19C73.0572 1000.3 66.298 986.44 58.2963 970.033C45.24 943.262 28.8756 909.707 31.8385 875.526C34.0262 850.288 45.1646 833.47 56.5367 816.299C66.7505 800.877 77.1527 785.17 81.4281 762.823C85.3726 742.206 73.9085 735.545 62.1557 728.717C50.161 721.748 37.8656 714.604 41.3415 692.272C44.1472 674.246 55.706 654.826 68.5734 633.207L68.5736 633.206C84.2632 606.846 101.898 577.217 107.983 542.861C115.745 491.37 110.73 460.177 100.443 406.327C97.8654 392.834 94.9894 378.803 92.1328 364.868C88.9763 349.469 85.8437 334.187 83.1641 319.875C76.2804 283.109 71.5907 252.294 69.6596 238.114C66.2963 213.419 73.2883 201.748 84.6485 218.326C84.9139 218.713 85.1782 219.099 85.4414 219.484L85.8023 220.011C92.8231 230.273 99.0217 239.333 102.194 238.21C105.541 237.026 105.521 224.513 104.493 211.791C102.944 192.615 99.2786 180.129 96.2929 169.958C95.7652 168.161 95.2588 166.436 94.7891 164.759C92.3852 157.577 88.9595 153.36 85.5545 149.168C79.0661 141.181 72.6528 133.286 73.5279 105.145C74.1901 83.8493 86.6639 60.9155 98.1869 39.7298Z" fill="url(#paint0_linear_3629_655)"/>
<circle cx="96.1729" cy="184.577" r="29.5" fill="#00A7B5"/>
<path d="M82.6729 180.785V195.765C82.6729 196.773 83.4849 197.585 84.4929 197.585H107.453C108.461 197.585 109.273 196.773 109.273 195.765V180.785H82.6729ZM91.1009 193.273C91.1009 193.581 90.8489 193.861 90.5129 193.861H87.5729C87.2649 193.861 86.9849 193.609 86.9849 193.273V191.201C86.9849 190.893 87.2369 190.613 87.5729 190.613H90.5409C90.8489 190.613 91.1289 190.865 91.1289 191.201V193.273H91.1009ZM91.1009 187.225C91.1009 187.533 90.8489 187.813 90.5129 187.813H87.5729C87.2649 187.813 86.9849 187.561 86.9849 187.225V185.125C86.9849 184.817 87.2369 184.537 87.5729 184.537H90.5409C90.8489 184.537 91.1289 184.789 91.1289 185.125V187.225H91.1009ZM98.0169 193.273C98.0169 193.581 97.7649 193.861 97.4289 193.861H94.4889C94.1809 193.861 93.9009 193.609 93.9009 193.273V191.201C93.9009 190.893 94.1529 190.613 94.4889 190.613H97.4569C97.7649 190.613 98.0449 190.865 98.0449 191.201V193.273H98.0169ZM98.0169 187.225C98.0169 187.533 97.7649 187.813 97.4289 187.813H94.4889C94.1809 187.813 93.9009 187.561 93.9009 187.225V185.125C93.9009 184.817 94.1529 184.537 94.4889 184.537H97.4569C97.7649 184.537 98.0449 184.789 98.0449 185.125V187.225H98.0169ZM104.961 193.273C104.961 193.581 104.709 193.861 104.373 193.861H101.405C101.097 193.861 100.817 193.609 100.817 193.273V191.201C100.817 190.893 101.069 190.613 101.405 190.613H104.373C104.681 190.613 104.961 190.865 104.961 191.201V193.273ZM104.961 187.225C104.961 187.533 104.709 187.813 104.373 187.813H101.405C101.097 187.813 100.817 187.561 100.817 187.225V185.125C100.817 184.817 101.069 184.537 101.405 184.537H104.373C104.681 184.537 104.961 184.789 104.961 185.125V187.225Z" fill="white"/>
<path d="M109.273 176.277C109.273 175.269 108.461 174.457 107.453 174.457H106.109V173.673C106.109 172.805 105.409 172.077 104.513 172.077C103.645 172.077 102.917 172.777 102.917 173.673V174.457H89.0289V173.673C89.0289 172.805 88.3289 172.077 87.4329 172.077C86.5369 172.077 85.8369 172.777 85.8369 173.673V174.457H84.4929C83.4849 174.457 82.6729 175.269 82.6729 176.277V179.217H109.273V176.277Z" fill="white"/>
<circle cx="85.5" cy="318.5" r="29.5" fill="#00A7B5"/>
<path d="M88.636 315.659C87.0655 315.659 85.7935 314.387 85.7935 312.818V306H77.2725C76.0175 306 75 307.018 75 308.273V328.727C75 329.982 76.0175 331 77.2725 331H93.1815C94.4365 331 95.454 329.982 95.454 328.727V315.659H88.636ZM91.477 326.455H78.977C78.663 326.455 78.4085 326.2 78.4085 325.886C78.4085 325.572 78.663 325.318 78.977 325.318H91.477C91.791 325.318 92.0455 325.572 92.0455 325.886C92.0455 326.2 91.791 326.455 91.477 326.455ZM91.477 323.045H78.977C78.663 323.045 78.4085 322.791 78.4085 322.477C78.4085 322.163 78.663 321.909 78.977 321.909H91.477C91.791 321.909 92.0455 322.163 92.0455 322.477C92.0455 322.791 91.791 323.045 91.477 323.045ZM91.477 319.637H78.977C78.663 319.637 78.4085 319.382 78.4085 319.068C78.4085 318.754 78.663 318.5 78.977 318.5H91.477C91.791 318.5 92.0455 318.754 92.0455 319.068C92.0455 319.382 91.791 319.637 91.477 319.637Z" fill="white"/>
<path d="M88.6357 314.524L94.4132 314.521L86.9287 307.037V312.818C86.9312 313.757 87.6962 314.521 88.6357 314.524Z" fill="white"/>
<circle cx="114.173" cy="522.577" r="29.5" fill="#00A7B5"/>
<path d="M120.033 519.824V525.647L128.022 529.908V516.09L120.033 519.824Z" fill="white"/>
<path d="M115.509 515.077H101.941C101.339 515.077 100.762 515.316 100.337 515.741C99.9118 516.167 99.6729 516.744 99.6729 517.345V528.668C99.6729 529.27 99.9118 529.847 100.337 530.272C100.762 530.697 101.339 530.936 101.941 530.936H115.509C116.111 530.936 116.688 530.697 117.113 530.272C117.538 529.847 117.777 529.27 117.777 528.668V517.328C117.773 516.73 117.532 516.157 117.107 515.735C116.682 515.314 116.108 515.077 115.509 515.077Z" fill="white"/>
<circle cx="52.1729" cy="702.577" r="29.5" fill="#00A7B5"/>
<path d="M64.9882 705.853L61.0362 705.809C61.0322 705.809 61.0322 705.809 61.0282 705.809C60.7882 705.809 60.5682 705.953 60.4762 706.177C59.0442 709.585 55.6042 711.745 51.9162 711.549C47.5082 711.317 43.9482 707.825 43.6402 703.425C43.4682 700.965 44.2962 698.621 45.9722 696.821C47.6282 695.045 49.9642 694.029 52.3842 694.029C54.0762 694.029 55.6962 694.505 57.1082 695.417L55.4322 697.093C55.0402 697.485 54.9242 698.073 55.1362 698.585C55.3482 699.097 55.8442 699.429 56.4002 699.429H63.6882C64.4442 699.429 65.0562 698.813 65.0562 698.061V690.769C65.0562 690.213 64.7242 689.717 64.2122 689.505C63.7002 689.293 63.1122 689.409 62.7202 689.801L60.6562 691.865C57.9042 689.773 54.5162 688.809 51.0482 689.141C44.3162 689.785 39.0002 695.377 38.6882 702.149C38.5122 705.933 39.8562 709.521 42.4722 712.261C45.0882 715.001 48.6122 716.509 52.3882 716.509C58.4482 716.509 63.8642 712.445 65.5602 706.621C65.6122 706.441 65.5762 706.245 65.4642 706.097C65.3522 705.949 65.1762 705.857 64.9882 705.853Z" fill="white"/>
</g>
<defs>
<linearGradient id="paint0_linear_3629_655" x1="49.7659" y1="102.975" x2="96.8327" y2="1103.99" gradientUnits="userSpaceOnUse">
<stop stop-color="#64A70B"/>
<stop offset="1" stop-color="#009CDE"/>
</linearGradient>
<clipPath id="clip0_3629_655">
<rect width="144" height="1212" fill="white"/>
</clipPath>
</defs>
</svg>
